<svg width="40" height="40" viewBox="0 0 40 40" fill="none" xmlns="http://www.w3.org/2000/svg">
<path d="M20 35C28.2843 35 35 28.2843 35 20C35 11.7157 28.2843 5 20 5C11.7157 5 5 11.7157 5 20C5 28.2843 11.7157 35 20 35Z" stroke="black" stroke-width="2" stroke-linecap="round" stroke-linejoin="round"/>
<path d="M27.9844 16.9219C25.5099 15.6561 22.7697 14.9973 19.9903 15C17.2109 15.0027 14.472 15.6668 12 16.9375" stroke="black" stroke-width="2" stroke-linecap="round" stroke-linejoin="round"/>
<path d="M25.6719 21.3595C23.9121 20.4635 21.965 19.9978 19.9903 20.0005C18.0156 20.0032 16.0698 20.4743 14.3125 21.3751" stroke="black" stroke-width="2" stroke-linecap="round" stroke-linejoin="round"/>
<path d="M23.3594 25.7969C22.3182 25.2698 21.167 24.9967 20 25C18.8287 25.0024 17.6737 25.2751 16.625 25.7969" stroke="black" stroke-width="2" stroke-linecap="round" stroke-linejoin="round"/>
</svg>
